SplineFontDB: 3.0
FontName: dsrom10
FullName: dsrom10
FamilyName: dsrom10
Weight: Book
Copyright: Generated from MetaFont bitmap by pktrace, http://www.cs.uu.nl/~hanwen/pktrace/
Version: 001.001
ItalicAngle: 0
UnderlinePosition: -100
UnderlineWidth: 50
Ascent: 800
Descent: 200
InvalidEm: 0
sfntRevision: 0x00010041
LayerCount: 2
Layer: 0 1 "Back" 1
Layer: 1 1 "Fore" 0
XUID: [1021 315 1387085433 12196173]
StyleMap: 0x0000
FSType: 0
OS2Version: 1
OS2_WeightWidthSlopeOnly: 0
OS2_UseTypoMetrics: 0
CreationTime: 1591869577
ModificationTime: 1591869577
PfmFamily: 17
TTFWeight: 400
TTFWidth: 5
LineGap: 90
VLineGap: 0
Panose: 2 0 5 3 0 0 0 0 0 0
OS2TypoAscent: 800
OS2TypoAOffset: 0
OS2TypoDescent: -200
OS2TypoDOffset: 0
OS2TypoLinegap: 90
OS2WinAscent: 713
OS2WinAOffset: 0
OS2WinDescent: 193
OS2WinDOffset: 0
HheadAscent: 713
HheadAOffset: 0
HheadDescent: -193
HheadDOffset: 0
OS2SubXSize: 650
OS2SubYSize: 700
OS2SubXOff: 0
OS2SubYOff: 140
OS2SupXSize: 650
OS2SupYSize: 700
OS2SupXOff: 0
OS2SupYOff: 480
OS2StrikeYSize: 49
OS2StrikeYPos: 258
OS2Vendor: 'LyEd'
OS2CodePages: 00000001.00000000
OS2UnicodeRanges: 00000001.00000000.00000000.00000000
DEI: 91125
ShortTable: maxp 16
  1
  0
  33
  170
  4
  0
  0
  2
  0
  1
  1
  0
  64
  0
  0
  0
EndShort
LangName: 1033 "" "" "LyX" "FontForge 2.0 : dsrom10 : 11-6-2020"
GaspTable: 1 65535 2 0
Encoding: UnicodeBmp
UnicodeInterp: none
NameList: AGL For New Fonts
DisplaySize: -48
AntiAlias: 1
FitToEm: 0
WinInfo: 48 16 4
BeginChars: 65539 33

StartChar: one
Encoding: 49 49 3
Width: 611
GlyphClass: 2
Flags: W
LayerCount: 2
Fore
SplineSet
55 570 m 1,0,1
 141 572 141 572 204 608 c 0,2,3
 231 624 231 624 250 643 c 0,4,5
 255 647 255 647 263 657 c 2,6,-1
 266 661 l 2,7,8
 270 665 270 665 272 666 c 128,-1,9
 274 667 274 667 285 667 c 2,10,-1
 309 667 l 1,11,-1
 376 667 l 2,12,13
 398 667 398 667 401 663 c 0,14,15
 405 660 405 660 405 650 c 2,16,-1
 405 626 l 1,17,-1
 405 522 l 1,18,-1
 405 174 l 1,19,-1
 405 87 l 2,20,21
 405 56 405 56 413 46 c 0,22,23
 422 36 422 36 445 34 c 0,24,25
 469 32 469 32 516 32 c 1,26,-1
 516 1 l 1,27,-1
 94 1 l 1,28,-1
 94 32 l 1,29,30
 141 32 141 32 165 34 c 0,31,32
 188 36 188 36 197 46 c 0,33,34
 205 56 205 56 205 90 c 2,35,-1
 205 188 l 1,36,-1
 205 577 l 1,37,38
 142 541 142 541 55 539 c 1,39,-1
 55 570 l 1,0,1
374 636 m 1,40,-1
 294 636 l 1,41,-1
 294 32 l 1,42,-1
 374 32 l 1,43,-1
 374 636 l 1,40,-1
EndSplineSet
EndChar

StartChar: A
Encoding: 65 65 4
Width: 833
GlyphClass: 2
Flags: W
LayerCount: 2
Fore
SplineSet
329 693 m 1,0,-1
 447 693 l 1,1,-1
 477 693 l 2,2,3
 488 693 488 693 490 691 c 0,4,5
 493 689 493 689 495 680 c 2,6,-1
 504 654 l 1,7,-1
 538 551 l 2,8,9
 604 352 604 352 659 192 c 0,10,11
 664 176 664 176 675 143.5 c 128,-1,12
 686 111 686 111 691 95 c 0,13,14
 703 56 703 56 713 46 c 128,-1,15
 723 36 723 36 746 34 c 0,16,17
 764 32 764 32 800 32 c 1,18,-1
 800 1 l 1,19,-1
 723 4 l 1,20,-1
 632 3 l 1,21,-1
 575 3 l 1,22,-1
 515 1 l 1,23,-1
 498 3 l 1,24,-1
 465 3 l 1,25,-1
 409 1 l 1,26,-1
 409 32 l 1,27,28
 451 32 451 32 470 38 c 0,29,30
 488 46 488 46 492 58 c 0,31,32
 493 61 493 61 487 82 c 2,33,-1
 470 134 l 1,34,-1
 449 197 l 2,35,36
 442 214 442 214 440 215 c 0,37,38
 438 217 438 217 432 217 c 2,39,-1
 272 217 l 1,40,-1
 232 217 l 2,41,42
 219 217 219 217 216 215 c 0,43,44
 212 210 212 210 209 198 c 0,45,46
 198 166 198 166 195 157 c 2,47,-1
 179 111 l 2,48,49
 172 90 172 90 172 82 c 0,50,51
 173 57 173 57 197 44.5 c 128,-1,52
 221 32 221 32 248 32 c 1,53,-1
 248 1 l 1,54,-1
 156 4 l 1,55,-1
 69 3 l 1,56,-1
 32 1 l 1,57,-1
 32 32 l 1,58,59
 104 32 104 32 132 76 c 0,60,61
 139 88 139 88 153 132 c 0,62,63
 168 173 168 173 184 224 c 0,64,65
 200 274 200 274 233 372.5 c 128,-1,66
 266 471 266 471 283 520 c 2,67,-1
 324 641 l 1,68,-1
 333 669 l 1,69,-1
 336 682 l 2,70,71
 336 683 336 683 329 693 c 1,0,-1
469 662 m 1,72,-1
 384 662 l 1,73,74
 434 510 434 510 536 208 c 0,75,76
 543 187 543 187 557 145.5 c 128,-1,77
 571 104 571 104 578 83 c 2,78,-1
 589 49 l 2,79,80
 590 48 590 48 590.5 46 c 128,-1,81
 591 44 591 44 591.5 42.5 c 128,-1,82
 592 41 592 41 592.5 39.5 c 128,-1,83
 593 38 593 38 593.5 36.5 c 128,-1,84
 594 35 594 35 595 34 c 0,85,86
 598 32 598 32 618 32 c 2,87,-1
 679 32 l 1,88,-1
 661 86 l 1,89,-1
 628 186 l 1,90,-1
 530 480 l 1,91,-1
 490 599 l 1,92,-1
 469 662 l 1,72,-1
329 556 m 1,93,-1
 316 520 l 1,94,-1
 294 455 l 1,95,-1
 225 248 l 1,96,-1
 431 248 l 1,97,-1
 421 279 l 1,98,-1
 404 331 l 1,99,-1
 354 481 l 1,100,-1
 329 556 l 1,93,-1
EndSplineSet
EndChar

StartChar: B
Encoding: 66 66 5
Width: 764
GlyphClass: 2
Flags: W
LayerCount: 2
Fore
SplineSet
36 684 m 1,0,-1
 342 684 l 2,1,2
 349 684 349 684 372 684 c 128,-1,3
 395 684 395 684 404.5 684 c 128,-1,4
 414 684 414 684 434 683.5 c 128,-1,5
 454 683 454 683 466 681.5 c 128,-1,6
 478 680 478 680 495 677.5 c 128,-1,7
 512 675 512 675 526.5 671 c 128,-1,8
 541 667 541 667 555 662 c 0,9,10
 604 643 604 643 638.5 608.5 c 128,-1,11
 673 574 673 574 679 528 c 0,12,13
 681 514 681 514 679 500 c 0,14,15
 676 484 676 484 670 469 c 0,16,17
 661 450 661 450 647 434 c 0,18,19
 605 390 605 390 537 368 c 0,20,21
 531 367 531 367 514.5 363.5 c 128,-1,22
 498 360 498 360 490 357 c 1,23,24
 509 357 509 357 543 349 c 0,25,26
 605 334 605 334 652.5 295 c 128,-1,27
 700 256 700 256 707 200 c 0,28,29
 708 185 708 185 707 170 c 0,30,31
 706 151 706 151 698 133 c 0,32,33
 688 108 688 108 669 86 c 0,34,35
 647 60 647 60 612 40 c 0,36,37
 559 8 559 8 490 2 c 0,38,39
 477 1 477 1 372 1 c 2,40,-1
 36 1 l 1,41,-1
 36 32 l 1,42,43
 81 32 81 32 104 34 c 0,44,45
 127 38 127 38 134 49 c 0,46,47
 139 58 139 58 139 90 c 2,48,-1
 139 176 l 1,49,-1
 139 501 l 1,50,-1
 139 594 l 2,51,52
 139 628 139 628 133 637 c 0,53,54
 127 647 127 647 104 651 c 0,55,56
 81 653 81 653 36 653 c 1,57,-1
 36 684 l 1,0,-1
302 653 m 1,58,-1
 222 653 l 1,59,-1
 222 32 l 1,60,-1
 302 32 l 1,61,-1
 302 653 l 1,58,-1
333 367 m 1,62,63
 340 367 340 367 364 366.5 c 128,-1,64
 388 366 388 366 399.5 366.5 c 128,-1,65
 411 367 411 367 429.5 369 c 128,-1,66
 448 371 448 371 463 375 c 0,67,68
 511 389 511 389 544.5 424.5 c 128,-1,69
 578 460 578 460 582 507 c 0,70,71
 583 521 583 521 580 538 c 0,72,73
 577 557 577 557 566 578 c 0,74,75
 554 599 554 599 535 615 c 0,76,77
 517 632 517 632 486 644 c 0,78,79
 460 653 460 653 378 653 c 0,80,81
 345 653 345 653 338 643 c 0,82,83
 333 636 333 636 333 617 c 2,84,-1
 333 567 l 1,85,-1
 333 367 l 1,62,63
333 345 m 1,86,-1
 333 123 l 1,87,-1
 333 68 l 2,88,89
 333 49 333 49 339 41 c 0,90,91
 347 32 347 32 375 32 c 0,92,93
 448 32 448 32 469 36 c 0,94,95
 553 51 553 51 590 117 c 0,96,97
 601 137 601 137 605 157 c 0,98,99
 618 217 618 217 582.5 270.5 c 128,-1,100
 547 324 547 324 487 340 c 0,101,102
 468 345 468 345 417 345 c 2,103,-1
 333 345 l 1,86,-1
EndSplineSet
EndChar

StartChar: C
Encoding: 67 67 6
Width: 722
GlyphClass: 2
Flags: W
LayerCount: 2
Fore
SplineSet
589 620 m 1,0,1
 591 625 591 625 610 651 c 0,2,3
 615 657 615 657 624 670.5 c 128,-1,4
 633 684 633 684 637 691 c 0,5,6
 652 712 652 712 662 704 c 0,7,8
 666 700 666 700 666 689 c 2,9,-1
 666 652 l 1,10,-1
 666 499 l 1,11,-1
 666 441 l 2,12,13
 666 425 666 425 659 422 c 0,14,15
 655 420 655 420 647 421 c 128,-1,16
 639 422 639 422 637 426 c 0,17,18
 634 430 634 430 634 440 c 0,19,20
 634 443 634 443 633 450 c 128,-1,21
 632 457 632 457 631 460 c 0,22,23
 625 488 625 488 614 519 c 0,24,25
 596 568 596 568 562 606.5 c 128,-1,26
 528 645 528 645 483 662 c 0,27,28
 462 671 462 671 427 675 c 0,29,30
 378 679 378 679 321 655 c 0,31,32
 300 645 300 645 298 643 c 0,33,34
 290 638 290 638 289 636 c 0,35,36
 287 632 287 632 287 624 c 2,37,-1
 287 604 l 1,38,-1
 287 525 l 1,39,-1
 287 235 l 1,40,-1
 287 97 l 1,41,-1
 287 63 l 2,42,43
 287 51 287 51 290 48 c 0,44,45
 293 44 293 44 307 37 c 0,46,47
 334 23 334 23 361 17 c 0,48,49
 396 9 396 9 427 10 c 0,50,51
 481 13 481 13 529 41.5 c 128,-1,52
 577 70 577 70 606 117 c 0,53,54
 630 157 630 157 637 198 c 0,55,56
 639 207 639 207 641 229 c 0,57,58
 641 242 641 242 642 244 c 0,59,60
 644 251 644 251 653.5 251 c 128,-1,61
 663 251 663 251 665 243 c 128,-1,62
 667 235 667 235 665 219 c 0,63,64
 662 183 662 183 652 156 c 0,65,66
 634 103 634 103 595 61.5 c 128,-1,67
 556 20 556 20 504 -2 c 0,68,69
 470 -16 470 -16 421 -21 c 0,70,71
 392 -23 392 -23 349 -16 c 0,72,73
 252 0 252 0 177 67 c 128,-1,74
 102 134 102 134 72 229 c 0,75,76
 48 306 48 306 58 388.5 c 128,-1,77
 68 471 68 471 111 540 c 0,78,79
 133 576 133 576 165 607 c 0,80,81
 199 641 199 641 242 664 c 0,82,83
 292 691 292 691 352 702 c 0,84,85
 419 713 419 713 477 695 c 0,86,87
 521 681 521 681 557 650 c 0,88,89
 563 645 563 645 574 634 c 128,-1,90
 585 623 585 623 589 620 c 1,0,1
256 613 m 1,91,92
 242 603 242 603 226 582 c 0,93,94
 194 543 194 543 176 486 c 0,95,96
 163 441 163 441 159 374 c 0,97,98
 154 265 154 265 180 188 c 0,99,100
 195 144 195 144 222 108 c 0,101,102
 241 84 241 84 256 72 c 1,103,-1
 256 613 l 1,91,92
EndSplineSet
EndChar

StartChar: D
Encoding: 68 68 7
Width: 792
GlyphClass: 2
Flags: W
LayerCount: 2
Fore
SplineSet
34 684 m 1,0,-1
 348 684 l 1,1,-1
 417 684 l 2,2,3
 456 684 456 684 475 682 c 0,4,5
 530 673 530 673 577 644 c 0,6,7
 607 626 607 626 632 601 c 0,8,9
 701 532 701 532 725.5 431.5 c 128,-1,10
 750 331 750 331 721.5 231.5 c 128,-1,11
 693 132 693 132 618 68 c 0,12,13
 588 43 588 43 555 27 c 0,14,15
 517 8 517 8 468 2 c 0,16,17
 451 1 451 1 416 1 c 2,18,-1
 347 1 l 1,19,-1
 34 1 l 1,20,-1
 34 32 l 1,21,22
 79 32 79 32 102 34 c 0,23,24
 125 38 125 38 132 49 c 0,25,26
 137 58 137 58 137 90 c 2,27,-1
 137 176 l 1,28,-1
 137 501 l 1,29,-1
 137 594 l 2,30,31
 137 628 137 628 131 637 c 0,32,33
 125 647 125 647 102 651 c 0,34,35
 79 653 79 653 34 653 c 1,36,-1
 34 684 l 1,0,-1
303 653 m 1,37,-1
 223 653 l 1,38,-1
 223 32 l 1,39,-1
 303 32 l 1,40,-1
 303 653 l 1,37,-1
366 653 m 0,41,42
 343 651 343 651 338 641 c 0,43,44
 334 635 334 635 334 620 c 2,45,-1
 334 595 l 1,46,-1
 334 489 l 1,47,-1
 334 160 l 1,48,-1
 334 77 l 2,49,50
 334 48 334 48 340 41 c 0,51,52
 344 35 344 35 363 33 c 0,53,54
 373 32 373 32 394 32 c 2,55,-1
 425 32 l 2,56,57
 456 33 456 33 486 44 c 0,58,59
 509 52 509 52 533 68 c 0,60,61
 551 81 551 81 564 94 c 0,62,63
 631 161 631 161 635 304 c 0,64,65
 638 404 638 404 622.5 478 c 128,-1,66
 607 552 607 552 551 601 c 0,67,68
 535 616 535 616 514 627 c 0,69,70
 489 641 489 641 457 649 c 0,71,72
 438 653 438 653 399 653 c 2,73,-1
 382 654 l 2,74,75
 366 654 366 654 366 653 c 0,41,42
EndSplineSet
EndChar

StartChar: E
Encoding: 69 69 8
Width: 736
GlyphClass: 2
Flags: W
LayerCount: 2
Fore
SplineSet
33 681 m 1,0,-1
 652 681 l 1,1,-1
 667 558 l 1,2,-1
 680 456 l 1,3,-1
 655 456 l 1,4,5
 644 531 644 531 636 559 c 0,6,7
 627 593 627 593 609 612 c 0,8,9
 601 620 601 620 591.5 626 c 128,-1,10
 582 632 582 632 574 636 c 128,-1,11
 566 640 566 640 552.5 643 c 128,-1,12
 539 646 539 646 532 647.5 c 128,-1,13
 525 649 525 649 509 649.5 c 128,-1,14
 493 650 493 650 488 650 c 128,-1,15
 483 650 483 650 465.5 650 c 128,-1,16
 448 650 448 650 445 650 c 2,17,-1
 371 650 l 2,18,19
 349 648 349 648 342 640 c 0,20,21
 336 633 336 633 336 614 c 2,22,-1
 336 566 l 1,23,-1
 336 370 l 1,24,-1
 385 370 l 2,25,26
 412 370 412 370 426 372 c 0,27,28
 454 378 454 378 466 395 c 0,29,30
 473 406 473 406 475 426 c 0,31,32
 478 446 478 446 478 487 c 1,33,-1
 503 487 l 1,34,-1
 503 222 l 1,35,-1
 478 222 l 1,36,37
 478 263 478 263 475 283 c 0,38,39
 473 303 473 303 466 314 c 0,40,41
 454 331 454 331 426 337 c 0,42,43
 412 339 412 339 385 339 c 2,44,-1
 336 339 l 1,45,-1
 336 123 l 1,46,-1
 336 70 l 2,47,48
 336 49 336 49 342 42 c 0,49,50
 350 32 350 32 373 32 c 2,51,-1
 450 32 l 2,52,53
 494 32 494 32 514 33 c 128,-1,54
 534 34 534 34 568 44 c 128,-1,55
 602 54 602 54 623 75 c 0,56,57
 641 93 641 93 655 135 c 0,58,59
 662 156 662 156 682 259 c 1,60,-1
 707 259 l 1,61,-1
 683 113 l 1,62,-1
 665 1 l 1,63,-1
 33 1 l 1,64,-1
 33 32 l 1,65,66
 78 32 78 32 101 34 c 0,67,68
 124 38 124 38 131 49 c 0,69,70
 136 58 136 58 136 90 c 2,71,-1
 136 176 l 1,72,-1
 136 499 l 1,73,-1
 136 591 l 2,74,75
 136 625 136 625 130 634 c 0,76,77
 124 644 124 644 101 648 c 0,78,79
 78 650 78 650 33 650 c 1,80,-1
 33 681 l 1,0,-1
305 650 m 1,81,-1
 225 650 l 1,82,-1
 225 32 l 1,83,-1
 305 32 l 1,84,-1
 305 650 l 1,81,-1
EndSplineSet
EndChar

StartChar: F
Encoding: 70 70 9
Width: 708
GlyphClass: 2
Flags: W
LayerCount: 2
Fore
SplineSet
33 681 m 1,0,-1
 637 681 l 1,1,-1
 652 558 l 1,2,-1
 665 456 l 1,3,-1
 640 456 l 1,4,5
 628 538 628 538 623 556 c 0,6,7
 612 594 612 594 595 612 c 0,8,9
 577 631 577 631 545.5 640 c 128,-1,10
 514 649 514 649 498 649.5 c 128,-1,11
 482 650 482 650 440 650 c 0,12,13
 432 650 432 650 417.5 650.5 c 128,-1,14
 403 651 403 651 391 651 c 128,-1,15
 379 651 379 651 369 650 c 0,16,17
 348 648 348 648 342 640 c 128,-1,18
 336 632 336 632 336 613 c 2,19,-1
 336 563 l 1,20,-1
 336 357 l 1,21,-1
 382 357 l 2,22,23
 407 357 407 357 420 359 c 0,24,25
 449 364 449 364 461 382 c 0,26,27
 468 393 468 393 470 412 c 0,28,29
 473 433 473 433 473 474 c 1,30,-1
 498 474 l 1,31,-1
 498 209 l 1,32,-1
 473 209 l 1,33,34
 473 250 473 250 470 271 c 0,35,36
 468 290 468 290 461 301 c 0,37,38
 449 319 449 319 420 324 c 0,39,40
 407 326 407 326 382 326 c 2,41,-1
 336 326 l 1,42,-1
 336 120 l 1,43,-1
 336 81 l 2,44,45
 336 54 336 54 347 44 c 0,46,47
 357 36 357 36 385 34 c 0,48,49
 411 32 411 32 464 32 c 1,50,-1
 464 1 l 1,51,-1
 33 1 l 1,52,-1
 33 32 l 1,53,54
 78 32 78 32 101 34 c 0,55,56
 124 38 124 38 131 49 c 0,57,58
 136 58 136 58 136 90 c 2,59,-1
 136 176 l 1,60,-1
 136 499 l 1,61,-1
 136 591 l 2,62,63
 136 625 136 625 130 634 c 0,64,65
 124 644 124 644 101 648 c 0,66,67
 78 650 78 650 33 650 c 1,68,-1
 33 681 l 1,0,-1
305 650 m 1,69,-1
 225 650 l 1,70,-1
 225 32 l 1,71,-1
 305 32 l 1,72,-1
 305 650 l 1,69,-1
EndSplineSet
EndChar

StartChar: G
Encoding: 71 71 10
Width: 785
GlyphClass: 2
Flags: W
LayerCount: 2
Fore
SplineSet
594 64 m 1,0,1
 574 37 574 37 561 27 c 0,2,3
 508 -15 508 -15 428 -20 c 0,4,5
 313 -29 313 -29 214 38 c 0,6,7
 182 59 182 59 150 93 c 0,8,9
 120 124 120 124 95 173 c 0,10,11
 58 247 58 247 55 327 c 0,12,13
 51 417 51 417 90 500.5 c 128,-1,14
 129 584 129 584 200 637 c 0,15,16
 279 697 279 697 384 705 c 0,17,18
 470 713 470 713 539 664 c 0,19,20
 550 657 550 657 570 639 c 2,21,-1
 589 620 l 1,22,23
 591 625 591 625 610 651 c 0,24,25
 615 657 615 657 624 670.5 c 128,-1,26
 633 684 633 684 637 691 c 0,27,28
 652 712 652 712 662 704 c 0,29,30
 666 700 666 700 666 689 c 2,31,-1
 666 652 l 1,32,-1
 666 499 l 1,33,-1
 666 441 l 2,34,35
 666 425 666 425 659 422 c 0,36,37
 643 415 643 415 636 427 c 0,38,39
 635 430 635 430 634 436.5 c 128,-1,40
 633 443 633 443 633 444 c 0,41,42
 632 452 632 452 628 473 c 0,43,44
 618 517 618 517 598 554 c 0,45,46
 570 605 570 605 525 638.5 c 128,-1,47
 480 672 480 672 425 675 c 0,48,49
 390 676 390 676 354 667 c 0,50,51
 327 658 327 658 309 649 c 0,52,53
 294 642 294 642 291 639 c 0,54,55
 287 636 287 636 287 622 c 2,56,-1
 287 583 l 1,57,-1
 287 421 l 1,58,-1
 287 157 l 1,59,-1
 287 83 l 1,60,-1
 287 62 l 2,61,62
 287 55 287 55 288 51 c 0,63,64
 290 47 290 47 300 42 c 0,65,66
 314 34 314 34 334 26 c 0,67,68
 418 -5 418 -5 495 23 c 0,69,70
 561 46 561 46 574 99 c 0,71,72
 577 110 577 110 577 167 c 2,73,-1
 577 195 l 2,74,75
 577 221 577 221 567 230 c 128,-1,76
 557 239 557 239 529 241 c 0,77,78
 503 243 503 243 452 243 c 1,79,-1
 452 274 l 1,80,-1
 735 274 l 1,81,-1
 735 243 l 1,82,83
 708 243 708 243 694 241 c 128,-1,84
 680 239 680 239 674 234 c 0,85,86
 670 230 670 230 668 223 c 128,-1,87
 666 216 666 216 665.5 211 c 128,-1,88
 665 206 665 206 665.5 196.5 c 128,-1,89
 666 187 666 187 666 185 c 2,90,-1
 666 61 l 1,91,-1
 666 22 l 2,92,93
 666 8 666 8 664 5 c 0,94,95
 657 -3 657 -3 640 11 c 0,96,97
 606 41 606 41 594 64 c 1,0,1
256 613 m 1,98,99
 248 608 248 608 230 587 c 0,100,101
 202 554 202 554 184 508 c 0,102,103
 152 423 152 423 159 312 c 0,104,105
 162 244 162 244 178 195 c 0,106,107
 196 141 196 141 227 103 c 0,108,109
 244 82 244 82 256 74 c 1,110,-1
 256 613 l 1,98,99
EndSplineSet
EndChar

StartChar: H
Encoding: 72 72 11
Width: 833
GlyphClass: 2
Flags: W
LayerCount: 2
Fore
SplineSet
33 684 m 1,0,-1
 439 684 l 1,1,-1
 439 653 l 1,2,3
 396 653 396 653 374 651 c 0,4,5
 353 649 353 649 345 641 c 0,6,7
 336 633 336 633 336 609 c 2,8,-1
 336 569 l 1,9,-1
 336 372 l 1,10,-1
 607 372 l 1,11,-1
 607 569 l 1,12,-1
 607 609 l 2,13,14
 607 633 607 633 598 641 c 0,15,16
 590 649 590 649 569 651 c 0,17,18
 547 653 547 653 504 653 c 1,19,-1
 504 684 l 1,20,-1
 799 684 l 1,21,-1
 799 653 l 1,22,23
 754 653 754 653 731 651 c 0,24,25
 708 647 708 647 702 637 c 0,26,27
 696 628 696 628 696 594 c 2,28,-1
 696 501 l 1,29,-1
 696 176 l 1,30,-1
 696 90 l 2,31,32
 696 58 696 58 701 49 c 0,33,34
 708 38 708 38 731 34 c 0,35,36
 754 32 754 32 799 32 c 1,37,-1
 799 1 l 1,38,-1
 504 1 l 1,39,-1
 504 32 l 1,40,41
 547 32 547 32 569 34 c 0,42,43
 590 36 590 36 598 44 c 0,44,45
 607 52 607 52 607 76 c 2,46,-1
 607 123 l 1,47,-1
 607 341 l 1,48,-1
 336 341 l 1,49,-1
 336 123 l 1,50,-1
 336 76 l 2,51,52
 336 52 336 52 345 44 c 0,53,54
 353 36 353 36 374 34 c 0,55,56
 396 32 396 32 439 32 c 1,57,-1
 439 1 l 1,58,-1
 33 1 l 1,59,-1
 33 32 l 1,60,61
 78 32 78 32 101 34 c 0,62,63
 124 38 124 38 131 49 c 0,64,65
 136 58 136 58 136 90 c 2,66,-1
 136 176 l 1,67,-1
 136 501 l 1,68,-1
 136 594 l 2,69,70
 136 628 136 628 130 637 c 0,71,72
 124 647 124 647 101 651 c 0,73,74
 78 653 78 653 33 653 c 1,75,-1
 33 684 l 1,0,-1
305 653 m 1,76,-1
 225 653 l 1,77,-1
 225 32 l 1,78,-1
 305 32 l 1,79,-1
 305 653 l 1,76,-1
EndSplineSet
EndChar

StartChar: I
Encoding: 73 73 12
Width: 444
GlyphClass: 2
Flags: W
LayerCount: 2
Fore
SplineSet
14 684 m 1,0,-1
 429 684 l 1,1,-1
 429 653 l 1,2,3
 381 653 381 653 357 650 c 0,4,5
 335 648 335 648 327 636 c 0,6,7
 322 628 322 628 322 596 c 2,8,-1
 322 510 l 1,9,-1
 322 183 l 1,10,-1
 322 90 l 2,11,12
 322 56 322 56 327 48 c 0,13,14
 334 38 334 38 358 34 c 0,15,16
 382 32 382 32 429 32 c 1,17,-1
 429 1 l 1,18,-1
 14 1 l 1,19,-1
 14 32 l 1,20,21
 61 32 61 32 85 34 c 0,22,23
 109 38 109 38 116 48 c 0,24,25
 121 56 121 56 121 90 c 2,26,-1
 121 183 l 1,27,-1
 121 510 l 1,28,-1
 121 596 l 2,29,30
 121 628 121 628 116 636 c 0,31,32
 108 648 108 648 86 650 c 0,33,34
 62 653 62 653 14 653 c 1,35,-1
 14 684 l 1,0,-1
291 653 m 1,36,-1
 211 653 l 1,37,-1
 211 32 l 1,38,-1
 291 32 l 1,39,-1
 291 653 l 1,36,-1
EndSplineSet
EndChar

StartChar: J
Encoding: 74 74 13
Width: 597
GlyphClass: 2
Flags: W
LayerCount: 2
Fore
SplineSet
141 684 m 1,0,-1
 548 684 l 1,1,-1
 548 653 l 1,2,3
 518 653 518 653 503 651 c 0,4,5
 486 649 486 649 480 644 c 0,6,7
 471 636 471 636 471 599 c 2,8,-1
 471 487 l 1,9,-1
 471 207 l 1,10,-1
 471 159 l 2,11,12
 471 133 471 133 469 120 c 0,13,14
 461 69 461 69 421 30 c 0,15,16
 376 -12 376 -12 314 -20 c 0,17,18
 302 -21 302 -21 240 -21 c 0,19,20
 173 -21 173 -21 165 -20 c 0,21,22
 107 -12 107 -12 72 31 c 0,23,24
 62 42 62 42 51 64 c 0,25,26
 33 105 33 105 44 135 c 0,27,28
 53 160 53 160 80 168 c 128,-1,29
 107 176 107 176 129 161 c 0,30,31
 150 147 150 147 152 119 c 128,-1,32
 154 91 154 91 136 74 c 0,33,34
 117 57 117 57 86 60 c 1,35,36
 98 42 98 42 107 33 c 0,37,38
 132 10 132 10 164 3.5 c 128,-1,39
 196 -3 196 -3 225 16 c 0,40,41
 238 28 238 28 248 44 c 0,42,43
 255 56 255 56 260.5 70.5 c 128,-1,44
 266 85 266 85 268.5 95.5 c 128,-1,45
 271 106 271 106 272.5 125.5 c 128,-1,46
 274 145 274 145 274 151.5 c 128,-1,47
 274 158 274 158 274 181.5 c 128,-1,48
 274 205 274 205 274 209 c 2,49,-1
 274 492 l 1,50,-1
 274 592 l 2,51,52
 274 628 274 628 267 636 c 0,53,54
 258 648 258 648 230 650 c 0,55,56
 208 653 208 653 141 653 c 1,57,-1
 141 684 l 1,0,-1
440 653 m 1,58,-1
 360 653 l 1,59,-1
 360 213 l 1,60,-1
 360 161 l 2,61,62
 360 132 360 132 358 117 c 0,63,64
 344 41 344 41 274 2 c 1,65,-1
 274 1 l 1,66,67
 310 1 310 1 334 7 c 0,68,69
 368 17 368 17 395 42 c 128,-1,70
 422 67 422 67 432 99 c 0,71,72
 440 122 440 122 440 180 c 2,73,-1
 440 284 l 1,74,-1
 440 653 l 1,58,-1
EndSplineSet
EndChar

StartChar: K
Encoding: 75 75 14
Width: 833
GlyphClass: 2
Flags: W
LayerCount: 2
Fore
SplineSet
33 684 m 1,0,-1
 439 684 l 1,1,-1
 439 653 l 1,2,3
 396 653 396 653 374 651 c 128,-1,4
 352 649 352 649 345 641 c 0,5,6
 336 631 336 631 336 606 c 2,7,-1
 336 541 l 1,8,-1
 336 267 l 1,9,10
 344 276 344 276 403 345 c 0,11,12
 423 369 423 369 463.5 415.5 c 128,-1,13
 504 462 504 462 524 485 c 0,14,15
 535 497 535 497 555.5 521.5 c 128,-1,16
 576 546 576 546 586 558 c 0,17,18
 605 580 605 580 606 581 c 0,19,20
 615 590 615 590 619 598 c 0,21,22
 622 602 622 602 622 609 c 0,23,24
 624 630 624 630 606 641.5 c 128,-1,25
 588 653 588 653 566 653 c 1,26,-1
 566 684 l 1,27,-1
 777 684 l 1,28,-1
 777 653 l 1,29,30
 716 653 716 653 669 612 c 0,31,32
 664 608 664 608 623 561 c 2,33,-1
 564 493 l 1,34,-1
 521 443 l 2,35,36
 507 426 507 426 507 422 c 0,37,38
 507 419 507 419 508.5 415.5 c 128,-1,39
 510 412 510 412 512 408.5 c 128,-1,40
 514 405 514 405 515 403 c 2,41,-1
 539 361 l 2,42,43
 583 280 583 280 625 204 c 0,44,45
 635 186 635 186 654.5 150.5 c 128,-1,46
 674 115 674 115 684 97 c 0,47,48
 708 53 708 53 728 42 c 0,49,50
 745 32 745 32 791 32 c 1,51,-1
 791 1 l 1,52,-1
 537 1 l 1,53,-1
 537 32 l 1,54,-1
 549 32 l 2,55,56
 600 32 600 32 602 63 c 0,57,58
 603 77 603 77 589 101 c 2,59,-1
 562 151 l 2,60,61
 537 195 537 195 489 283 c 2,62,-1
 464 328 l 2,63,64
 452 350 452 350 449 357 c 1,65,-1
 419 324 l 1,66,-1
 369 266 l 1,67,-1
 348 241 l 2,68,69
 338 228 338 228 337 226 c 0,70,71
 336 222 336 222 336 214 c 2,72,-1
 336 194 l 1,73,-1
 336 127 l 1,74,-1
 336 75 l 2,75,76
 336 51 336 51 347 42 c 0,77,78
 355 36 355 36 376 34 c 128,-1,79
 397 32 397 32 439 32 c 1,80,-1
 439 1 l 1,81,-1
 33 1 l 1,82,-1
 33 32 l 1,83,84
 78 32 78 32 101 34 c 0,85,86
 124 38 124 38 131 49 c 0,87,88
 136 58 136 58 136 90 c 2,89,-1
 136 176 l 1,90,-1
 136 501 l 1,91,-1
 136 594 l 2,92,93
 136 628 136 628 130 637 c 0,94,95
 124 647 124 647 101 651 c 0,96,97
 78 653 78 653 33 653 c 1,98,-1
 33 684 l 1,0,-1
305 653 m 1,99,-1
 225 653 l 1,100,-1
 225 32 l 1,101,-1
 305 32 l 1,102,-1
 305 653 l 1,99,-1
EndSplineSet
EndChar

StartChar: L
Encoding: 76 76 15
Width: 681
GlyphClass: 2
Flags: W
LayerCount: 2
Fore
SplineSet
33 684 m 1,0,-1
 464 684 l 1,1,-1
 464 653 l 1,2,3
 399 653 399 653 378 650 c 0,4,5
 352 648 352 648 342 635 c 0,6,7
 336 627 336 627 336 595 c 2,8,-1
 336 510 l 1,9,-1
 336 177 l 1,10,-1
 336 83 l 2,11,12
 336 50 336 50 341 43 c 0,13,14
 347 35 347 35 366 33 c 0,15,16
 373 32 373 32 431 32 c 0,17,18
 475 32 475 32 496 38 c 0,19,20
 517 45 517 45 531 54 c 0,21,22
 556 69 556 69 570 90 c 0,23,24
 586 113 586 113 595 149 c 0,25,26
 605 185 605 185 613 259 c 1,27,-1
 638 259 l 1,28,-1
 629 179 l 1,29,-1
 610 1 l 1,30,-1
 33 1 l 1,31,-1
 33 32 l 1,32,33
 78 32 78 32 101 34 c 0,34,35
 124 38 124 38 131 49 c 0,36,37
 136 58 136 58 136 90 c 2,38,-1
 136 176 l 1,39,-1
 136 501 l 1,40,-1
 136 594 l 2,41,42
 136 628 136 628 130 637 c 0,43,44
 124 647 124 647 101 651 c 0,45,46
 78 653 78 653 33 653 c 1,47,-1
 33 684 l 1,0,-1
305 653 m 1,48,-1
 225 653 l 1,49,-1
 225 32 l 1,50,-1
 305 32 l 1,51,-1
 305 653 l 1,48,-1
EndSplineSet
EndChar

StartChar: M
Encoding: 77 77 16
Width: 1000
GlyphClass: 2
Flags: W
LayerCount: 2
Fore
SplineSet
37 684 m 1,0,-1
 298 684 l 1,1,-1
 368 684 l 2,2,3
 393 684 393 684 398 681 c 128,-1,4
 403 678 403 678 407 666 c 0,5,6
 408 662 408 662 411 653.5 c 128,-1,7
 414 645 414 645 415 641 c 0,8,9
 433 583 433 583 449 537 c 0,10,11
 465 489 465 489 496 393 c 128,-1,12
 527 297 527 297 543 249 c 0,13,14
 551 222 551 222 569 168 c 0,15,16
 571 163 571 163 573.5 154 c 128,-1,17
 576 145 576 145 578.5 137.5 c 128,-1,18
 581 130 581 130 584 123 c 1,19,20
 587 130 587 130 589.5 137.5 c 128,-1,21
 592 145 592 145 594.5 154 c 128,-1,22
 597 163 597 163 599 168 c 0,23,24
 617 222 617 222 625 249 c 0,25,26
 640 297 640 297 671.5 391 c 128,-1,27
 703 485 703 485 718 533 c 0,28,29
 723 550 723 550 734.5 585.5 c 128,-1,30
 746 621 746 621 752 639 c 2,31,-1
 761 666 l 2,32,33
 766 678 766 678 769 681 c 0,34,35
 774 684 774 684 788 684 c 2,36,-1
 823 684 l 1,37,-1
 962 684 l 1,38,-1
 962 653 l 1,39,40
 917 653 917 653 894 651 c 0,41,42
 871 647 871 647 865 637 c 0,43,44
 859 628 859 628 859 594 c 2,45,-1
 859 501 l 1,46,-1
 859 176 l 1,47,-1
 859 90 l 2,48,49
 859 58 859 58 864 49 c 0,50,51
 871 38 871 38 894 34 c 0,52,53
 917 32 917 32 962 32 c 1,54,-1
 962 1 l 1,55,-1
 675 1 l 1,56,-1
 675 32 l 1,57,58
 720 32 720 32 742 34 c 0,59,60
 766 38 766 38 772 47 c 128,-1,61
 778 56 778 56 778 97 c 2,62,-1
 778 210 l 1,63,-1
 778 649 l 1,64,-1
 777 649 l 1,65,66
 775 640 775 640 769 622 c 0,67,68
 764 608 764 608 759 590 c 0,69,70
 739 534 739 534 726 489 c 0,71,72
 681 348 681 348 616 151 c 0,73,74
 607 125 607 125 579 36 c 0,75,76
 578 34 578 34 576.5 28.5 c 128,-1,77
 575 23 575 23 573.5 19 c 128,-1,78
 572 15 572 15 570 11 c 128,-1,79
 568 7 568 7 564.5 4.5 c 128,-1,80
 561 2 561 2 556 2 c 0,81,82
 543 2 543 2 534 35 c 0,83,84
 528 54 528 54 515.5 92 c 128,-1,85
 503 130 503 130 497 149 c 0,86,87
 434 337 434 337 387 488 c 0,88,89
 377 520 377 520 355 584 c 0,90,91
 340 628 340 628 338 639 c 1,92,-1
 337 639 l 1,93,-1
 337 218 l 1,94,-1
 337 108 l 2,95,96
 337 66 337 66 345 53 c 0,97,98
 354 39 354 39 377 35 c 0,99,100
 398 32 398 32 440 32 c 1,101,-1
 440 1 l 1,102,-1
 37 1 l 1,103,-1
 37 32 l 1,104,105
 79 32 79 32 100 35 c 0,106,107
 124 39 124 39 133 54 c 0,108,109
 140 66 140 66 140 101 c 2,110,-1
 140 183 l 1,111,-1
 140 501 l 1,112,-1
 140 594 l 2,113,114
 140 628 140 628 134 637 c 0,115,116
 128 647 128 647 105 651 c 0,117,118
 82 653 82 653 37 653 c 1,119,-1
 37 684 l 1,0,-1
309 653 m 1,120,-1
 229 653 l 1,121,-1
 229 32 l 1,122,-1
 309 32 l 1,123,-1
 309 653 l 1,120,-1
EndSplineSet
EndChar

StartChar: N
Encoding: 78 78 17
Width: 833
GlyphClass: 2
Flags: W
LayerCount: 2
Fore
SplineSet
33 684 m 1,0,-1
 288 684 l 1,1,-1
 358 684 l 2,2,3
 384 684 384 684 388 682 c 128,-1,4
 392 680 392 680 397 670 c 0,5,6
 404 658 404 658 411 645 c 2,7,-1
 465 546 l 2,8,9
 488 504 488 504 534.5 419.5 c 128,-1,10
 581 335 581 335 605 292 c 0,11,12
 611 280 611 280 625 255.5 c 128,-1,13
 639 231 639 231 645 219 c 0,14,15
 647 216 647 216 655 201 c 128,-1,16
 663 186 663 186 668 178 c 1,17,-1
 668 488 l 1,18,-1
 668 567 l 2,19,20
 668 604 668 604 660 618 c 0,21,22
 640 653 640 653 565 653 c 1,23,-1
 565 684 l 1,24,-1
 799 684 l 1,25,-1
 799 653 l 1,26,27
 723 653 723 653 703 616 c 0,28,29
 696 604 696 604 696 564 c 2,30,-1
 696 476 l 1,31,-1
 696 144 l 1,32,-1
 696 42 l 1,33,-1
 696 18 l 2,34,35
 696 8 696 8 692 5 c 0,36,37
 689 1 689 1 684 1 c 0,38,39
 680 1 680 1 676.5 2 c 128,-1,40
 673 3 673 3 670.5 6 c 128,-1,41
 668 9 668 9 666.5 11 c 128,-1,42
 665 13 665 13 662.5 18.5 c 128,-1,43
 660 24 660 24 659 25 c 2,44,-1
 596 139 l 2,45,46
 569 189 569 189 513 291 c 128,-1,47
 457 393 457 393 430 443 c 0,48,49
 419 463 419 463 397 502.5 c 128,-1,50
 375 542 375 542 364 562 c 0,51,52
 361 567 361 567 350 587 c 128,-1,53
 339 607 339 607 334 618 c 1,54,-1
 333 618 l 1,55,-1
 333 209 l 1,56,-1
 333 105 l 2,57,58
 333 64 333 64 341 52 c 0,59,60
 349 41 349 41 372 35 c 0,61,62
 393 32 393 32 436 32 c 1,63,-1
 436 1 l 1,64,-1
 33 1 l 1,65,-1
 33 32 l 1,66,67
 77 32 77 32 98 36 c 0,68,69
 120 40 120 40 129 54 c 0,70,71
 136 66 136 66 136 101 c 2,72,-1
 136 183 l 1,73,-1
 136 501 l 1,74,-1
 136 594 l 2,75,76
 136 628 136 628 130 637 c 0,77,78
 124 647 124 647 101 651 c 0,79,80
 78 653 78 653 33 653 c 1,81,-1
 33 684 l 1,0,-1
305 653 m 1,82,-1
 225 653 l 1,83,-1
 225 32 l 1,84,-1
 305 32 l 1,85,-1
 305 653 l 1,82,-1
EndSplineSet
EndChar

StartChar: O
Encoding: 79 79 18
Width: 778
GlyphClass: 2
Flags: W
LayerCount: 2
Fore
SplineSet
371 706 m 0,0,1
 398 708 398 708 441 701 c 0,2,3
 472 697 472 697 507 682 c 0,4,5
 596 645 596 645 652 564 c 128,-1,6
 708 483 708 483 720 385 c 0,7,8
 731 282 731 282 690 186.5 c 128,-1,9
 649 91 649 91 565 33 c 0,10,11
 539 14 539 14 499 -1 c 0,12,13
 456 -16 456 -16 418 -20 c 0,14,15
 361 -24 361 -24 302 -9 c 0,16,17
 252 5 252 5 204 39 c 0,18,19
 165 68 165 68 134 106 c 0,20,21
 52 211 52 211 55.5 350 c 128,-1,22
 59 489 59 489 145 590 c 0,23,24
 175 626 175 626 223 658 c 0,25,26
 270 688 270 688 328 700 c 0,27,28
 336 702 336 702 353 704 c 128,-1,29
 370 706 370 706 371 706 c 0,0,1
376 681 m 0,30,31
 339 678 339 678 308 663 c 0,32,33
 290 654 290 654 288 650 c 0,34,35
 287 648 287 648 287 636 c 2,36,-1
 287 610 l 1,37,-1
 287 516 l 1,38,-1
 287 183 l 1,39,-1
 287 79 l 1,40,-1
 287 51 l 2,41,42
 287 40 287 40 289 37 c 0,43,44
 290 35 290 35 297 30 c 0,45,46
 311 23 311 23 314 22 c 0,47,48
 354 3 354 3 398 5 c 0,49,50
 454 8 454 8 501 44.5 c 128,-1,51
 548 81 548 81 575 136 c 0,52,53
 627 238 627 238 618 387 c 0,54,55
 613 480 613 480 585 539 c 0,56,57
 562 588 562 588 534 616 c 0,58,59
 466 687 466 687 376 681 c 0,30,31
256 627 m 1,60,61
 247 622 247 622 225 595 c 0,62,63
 194 554 194 554 176 497 c 0,64,65
 154 424 154 424 159 322 c 0,66,67
 164 227 164 227 189 165 c 0,68,69
 203 126 203 126 230 90 c 0,70,71
 246 70 246 70 256 62 c 1,72,-1
 256 627 l 1,60,61
EndSplineSet
EndChar

StartChar: P
Encoding: 80 80 19
Width: 736
GlyphClass: 2
Flags: W
LayerCount: 2
Fore
SplineSet
33 684 m 1,0,-1
 340 684 l 2,1,2
 437 684 437 684 449 683 c 0,3,4
 523 677 523 677 580 644 c 0,5,6
 627 618 627 618 656 575.5 c 128,-1,7
 685 533 685 533 679 484 c 0,8,9
 678 469 678 469 671 451 c 0,10,11
 662 428 662 428 647 410 c 0,12,13
 627 385 627 385 596 365 c 0,14,15
 533 324 533 324 442 317 c 1,16,-1
 405 317 l 1,17,-1
 336 317 l 1,18,-1
 336 117 l 1,19,-1
 336 76 l 2,20,21
 336 52 336 52 345 44 c 0,22,23
 353 36 353 36 374 34 c 0,24,25
 396 32 396 32 439 32 c 1,26,-1
 439 1 l 1,27,-1
 33 1 l 1,28,-1
 33 32 l 1,29,30
 78 32 78 32 101 34 c 0,31,32
 124 38 124 38 131 49 c 0,33,34
 136 58 136 58 136 90 c 2,35,-1
 136 176 l 1,36,-1
 136 501 l 1,37,-1
 136 594 l 2,38,39
 136 628 136 628 130 637 c 0,40,41
 124 647 124 647 101 651 c 0,42,43
 78 653 78 653 33 653 c 1,44,-1
 33 684 l 1,0,-1
305 653 m 1,45,-1
 225 653 l 1,46,-1
 225 32 l 1,47,-1
 305 32 l 1,48,-1
 305 653 l 1,45,-1
336 343 m 2,49,50
 339 343 339 343 361 343 c 128,-1,51
 383 343 383 343 389 343 c 128,-1,52
 395 343 395 343 413.5 344 c 128,-1,53
 432 345 432 345 441 346.5 c 128,-1,54
 450 348 450 348 465 351 c 128,-1,55
 480 354 480 354 491.5 359 c 128,-1,56
 503 364 503 364 514 370 c 0,57,58
 537 383 537 383 551 401 c 0,59,60
 582 442 582 442 576 519 c 0,61,62
 572 571 572 571 548 599 c 0,63,64
 534 616 534 616 507 630 c 0,65,66
 461 653 461 653 396 653 c 0,67,68
 372 653 372 653 360 652 c 0,69,70
 347 650 347 650 342 644 c 0,71,72
 336 636 336 636 336 617 c 2,73,-1
 336 563 l 1,74,-1
 336 343 l 2,49,50
EndSplineSet
EndChar

StartChar: Q
Encoding: 81 81 20
Width: 778
GlyphClass: 2
Flags: W
LayerCount: 2
Fore
SplineSet
484 -6 m 1,0,1
 428 -23 428 -23 365 -20 c 0,2,3
 312 -17 312 -17 256 9 c 0,4,5
 212 28 212 28 169 68 c 0,6,7
 140 96 140 96 117 129 c 0,8,9
 49 233 49 233 56 362.5 c 128,-1,10
 63 492 63 492 143 588 c 0,11,12
 171 622 171 622 208 648 c 0,13,14
 250 677 250 677 299 693 c 0,15,16
 353 710 353 710 410 705 c 0,17,18
 459 702 459 702 507 682 c 0,19,20
 550 663 550 663 585 636 c 0,21,22
 656 579 656 579 692 491.5 c 128,-1,23
 728 404 728 404 721 310.5 c 128,-1,24
 714 217 714 217 666 139 c 0,25,26
 627 76 627 76 570 37 c 0,27,28
 537 14 537 14 518 8 c 1,29,30
 520 5 520 5 523 -3 c 128,-1,31
 526 -11 526 -11 527 -14 c 0,32,33
 559 -86 559 -86 607 -90 c 0,34,35
 625 -90 625 -90 633 -88 c 0,36,37
 683 -78 683 -78 701 -29 c 0,38,39
 703 -22 703 -22 705 -8 c 0,40,41
 705 -7 705 -7 706 -1.5 c 128,-1,42
 707 4 707 4 708 6 c 0,43,44
 711 11 711 11 717 11 c 128,-1,45
 723 11 723 11 726 6 c 0,46,47
 728 3 728 3 728 -13 c 0,48,49
 728 -36 728 -36 723 -63 c 0,50,51
 702 -176 702 -176 628 -191 c 0,52,53
 618 -193 618 -193 599 -193 c 0,54,55
 578 -191 578 -191 566 -185 c 0,56,57
 531 -171 531 -171 511 -124 c 0,58,59
 496 -88 496 -88 484 -6 c 1,0,1
503 43 m 1,60,61
 522 54 522 54 542 78 c 0,62,63
 580 121 580 121 598 177 c 0,64,65
 628 264 628 264 621 372 c 0,66,67
 616 476 616 476 581 546 c 0,68,69
 553 603 553 603 503.5 641.5 c 128,-1,70
 454 680 454 680 396 681 c 0,71,72
 369 681 369 681 349 677 c 0,73,74
 324 671 324 671 301 659 c 0,75,76
 286 650 286 650 285 648 c 128,-1,77
 284 646 284 646 284 635 c 2,78,-1
 284 608 l 1,79,-1
 284 513 l 1,80,-1
 284 175 l 1,81,-1
 284 76 l 1,82,-1
 284 49 l 2,83,84
 284 39 284 39 286 36 c 0,85,86
 289 31 289 31 296 28 c 2,87,-1
 323 16 l 1,88,89
 306 47 306 47 308 73 c 0,90,91
 310 97 310 97 326 117.5 c 128,-1,92
 342 138 342 138 364 145 c 0,93,94
 385 152 385 152 411 147 c 0,95,96
 467 133 467 133 503 43 c 1,60,61
253 624 m 1,97,98
 242 616 242 616 226 595 c 0,99,100
 195 554 195 554 178 502 c 0,101,102
 159 446 159 446 156 372 c 0,103,104
 149 265 149 265 179 178 c 0,105,106
 194 131 194 131 224 92 c 0,107,108
 239 72 239 72 253 60 c 1,109,-1
 253 624 l 1,97,98
382 127 m 0,110,111
 374 126 374 126 365 122 c 0,112,113
 338 109 338 109 332 77 c 128,-1,114
 326 45 326 45 345 23 c 0,115,116
 363 1 363 1 410 5 c 0,117,118
 432 8 432 8 460 18 c 0,119,120
 473 23 473 23 476 28 c 0,121,122
 477 31 477 31 475 38 c 0,123,124
 471 54 471 54 468 62 c 0,125,126
 459 91 459 91 444 106 c 0,127,128
 420 130 420 130 382 127 c 0,110,111
EndSplineSet
EndChar

StartChar: R
Encoding: 82 82 21
Width: 792
GlyphClass: 2
Flags: W
LayerCount: 2
Fore
SplineSet
34 684 m 1,0,-1
 310 684 l 1,1,-1
 394 684 l 1,2,3
 496 679 496 679 564 641 c 0,4,5
 609 618 609 618 635 585 c 0,6,7
 650 565 650 565 658 546 c 0,8,9
 663 532 663 532 665 515 c 0,10,11
 675 429 675 429 562 372 c 0,12,13
 548 364 548 364 535 360 c 0,14,15
 496 345 496 345 477 343 c 1,16,-1
 477 341 l 1,17,18
 496 338 496 338 532 321 c 0,19,20
 582 294 582 294 602 253 c 0,21,22
 613 232 613 232 619 185 c 0,23,24
 621 172 621 172 625 148 c 128,-1,25
 629 124 629 124 631 111 c 0,26,27
 643 41 643 41 660 19 c 0,28,29
 674 2 674 2 696 1.5 c 128,-1,30
 718 1 718 1 734 16 c 0,31,32
 754 36 754 36 761 71 c 0,33,34
 762 74 762 74 762 79.5 c 128,-1,35
 762 85 762 85 763 88 c 0,36,37
 763 95 763 95 764 99 c 0,38,39
 769 109 769 109 781 105 c 0,40,41
 788 102 788 102 788 89 c 0,42,43
 788 71 788 71 781 48 c 0,44,45
 762 -5 762 -5 722 -17 c 0,46,47
 710 -21 710 -21 685 -21 c 0,48,49
 648 -19 648 -19 622 -10 c 0,50,51
 599 -3 599 -3 577 13 c 0,52,53
 566 21 566 21 555 34 c 0,54,55
 532 63 532 63 528 96 c 0,56,57
 526 109 526 109 526 177 c 0,58,59
 526 235 526 235 514 259 c 0,60,61
 483 319 483 319 399 330 c 0,62,63
 385 332 385 332 334 332 c 1,64,-1
 334 121 l 1,65,-1
 334 76 l 2,66,67
 334 52 334 52 343 44 c 0,68,69
 351 36 351 36 372 34 c 0,70,71
 394 32 394 32 437 32 c 1,72,-1
 437 1 l 1,73,-1
 34 1 l 1,74,-1
 34 32 l 1,75,76
 79 32 79 32 102 34 c 0,77,78
 125 38 125 38 132 49 c 0,79,80
 137 58 137 58 137 90 c 2,81,-1
 137 176 l 1,82,-1
 137 501 l 1,83,-1
 137 594 l 2,84,85
 137 628 137 628 131 637 c 0,86,87
 125 647 125 647 102 651 c 0,88,89
 79 653 79 653 34 653 c 1,90,-1
 34 684 l 1,0,-1
303 653 m 1,91,-1
 223 653 l 1,92,-1
 223 32 l 1,93,-1
 303 32 l 1,94,-1
 303 653 l 1,91,-1
334 354 m 1,95,96
 452 354 452 354 506 387 c 0,97,98
 526 402 526 402 530 406 c 0,99,100
 569 449 569 449 562 522 c 0,101,102
 557 569 557 569 533 598 c 0,103,104
 520 614 520 614 493 628 c 0,105,106
 448 650 448 650 391 652 c 0,107,108
 374 654 374 654 358 652 c 0,109,110
 345 650 345 650 340 644 c 0,111,112
 334 636 334 636 334 617 c 2,113,-1
 334 565 l 1,114,-1
 334 354 l 1,95,96
EndSplineSet
EndChar

StartChar: S
Encoding: 83 83 22
Width: 556
GlyphClass: 2
Flags: W
LayerCount: 2
Fore
SplineSet
307 299 m 1,0,1
 294 301 294 301 269 307.5 c 128,-1,2
 244 314 244 314 239 315 c 0,3,4
 162 335 162 335 130 359 c 0,5,6
 108 376 108 376 91 400 c 0,7,8
 53 452 53 452 55.5 518.5 c 128,-1,9
 58 585 58 585 99 635 c 0,10,11
 121 662 121 662 149 678 c 0,12,13
 197 706 197 706 254.5 706 c 128,-1,14
 312 706 312 706 360 679 c 0,15,16
 380 667 380 667 411 636 c 1,17,18
 414 644 414 644 427 663 c 0,19,20
 441 687 441 687 448 698 c 0,21,22
 461 713 461 713 469 702 c 0,23,24
 472 699 472 699 472 687 c 2,25,-1
 472 651 l 1,26,-1
 472 505 l 1,27,-1
 472 478 l 2,28,29
 472 466 472 466 471 464 c 0,30,31
 468 453 468 453 454 458 c 0,32,33
 451 459 451 459 449 462.5 c 128,-1,34
 447 466 447 466 446.5 469.5 c 128,-1,35
 446 473 446 473 445.5 478.5 c 128,-1,36
 445 484 445 484 445 486 c 0,37,38
 439 528 439 528 423 564 c 0,39,40
 395 631 395 631 336 660 c 0,41,42
 299 678 299 678 248 678 c 1,43,-1
 248 413 l 1,44,45
 253 412 253 412 310 398 c 0,46,47
 379 383 379 383 411 361 c 0,48,49
 433 347 433 347 450 326 c 0,50,51
 502 265 502 265 499.5 180.5 c 128,-1,52
 497 96 497 96 442 38 c 0,53,54
 422 16 422 16 397 3 c 0,55,56
 342 -25 342 -25 280 -21 c 128,-1,57
 218 -17 218 -17 164 13 c 0,58,59
 152 19 152 19 116 49 c 1,60,61
 113 42 113 42 100 22 c 0,62,63
 86 -2 86 -2 79 -13 c 0,64,65
 66 -28 66 -28 58 -17 c 0,66,67
 55 -14 55 -14 55 -2 c 2,68,-1
 55 34 l 1,69,-1
 55 180 l 1,70,-1
 55 206 l 2,71,72
 55 218 55 218 56 220 c 0,73,74
 59 231 59 231 73 227 c 0,75,76
 80 224 80 224 80 208 c 0,77,78
 80 206 80 206 80.5 202 c 128,-1,79
 81 198 81 198 81 196 c 0,80,81
 84 149 84 149 105 112 c 0,82,83
 117 91 117 91 129 78 c 0,84,85
 190 10 190 10 307 10 c 1,86,-1
 307 299 l 1,0,1
217 674 m 1,87,88
 185 665 185 665 162 645 c 0,89,90
 121 609 121 609 119.5 552.5 c 128,-1,91
 118 496 118 496 155 457 c 0,92,93
 178 433 178 433 217 421 c 1,94,-1
 217 674 l 1,87,88
338 15 m 1,95,96
 366 20 366 20 394 48 c 0,97,98
 441 94 441 94 435 165 c 128,-1,99
 429 236 429 236 375 274 c 0,100,101
 358 286 358 286 338 291 c 1,102,-1
 338 15 l 1,95,96
EndSplineSet
EndChar

StartChar: T
Encoding: 84 84 23
Width: 750
GlyphClass: 2
Flags: W
LayerCount: 2
Fore
SplineSet
55 678 m 1,0,-1
 694 678 l 1,1,-1
 708 510 l 1,2,-1
 713 453 l 1,3,-1
 688 453 l 1,4,5
 684 511 684 511 675 547 c 0,6,7
 662 595 662 595 636 616 c 0,8,9
 626 625 626 625 612 631 c 0,10,11
 594 640 594 640 561 644 c 0,12,13
 530 649 530 649 503 646 c 0,14,15
 485 644 485 644 479 636 c 0,16,17
 475 630 475 630 475 596 c 2,18,-1
 475 501 l 1,19,-1
 475 175 l 1,20,-1
 475 89 l 2,21,22
 475 57 475 57 480 49 c 0,23,24
 488 37 488 37 510 35 c 0,25,26
 534 32 534 32 582 32 c 1,27,-1
 582 1 l 1,28,-1
 167 1 l 1,29,-1
 167 32 l 1,30,31
 215 32 215 32 239 35 c 0,32,33
 261 37 261 37 269 49 c 0,34,35
 274 57 274 57 274 89 c 2,36,-1
 274 175 l 1,37,-1
 274 501 l 1,38,-1
 274 596 l 2,39,40
 274 630 274 630 270 636 c 0,41,42
 264 644 264 644 247 646 c 0,43,44
 223 649 223 649 188 643 c 0,45,46
 149 638 149 638 126 623 c 0,47,48
 75 592 75 592 64 485 c 0,49,50
 64 479 64 479 63 469 c 128,-1,51
 62 459 62 459 61 453 c 1,52,-1
 36 453 l 1,53,-1
 41 510 l 1,54,-1
 55 678 l 1,0,-1
444 647 m 1,55,-1
 364 647 l 1,56,-1
 364 32 l 1,57,-1
 444 32 l 1,58,-1
 444 647 l 1,55,-1
EndSplineSet
EndChar

StartChar: U
Encoding: 85 85 24
Width: 806
GlyphClass: 2
Flags: W
LayerCount: 2
Fore
SplineSet
33 684 m 1,0,-1
 439 684 l 1,1,-1
 439 653 l 1,2,3
 394 653 394 653 371 651 c 0,4,5
 348 647 348 647 342 637 c 0,6,7
 336 628 336 628 336 590 c 2,8,-1
 336 488 l 1,9,-1
 336 167 l 1,10,-1
 336 72 l 1,11,-1
 336 44 l 2,12,13
 336 32 336 32 337 30 c 0,14,15
 338 26 338 26 354 20 c 0,16,17
 379 12 379 12 410 10 c 0,18,19
 451 8 451 8 489 22 c 0,20,21
 519 31 519 31 546 50 c 0,22,23
 622 103 622 103 635 196 c 0,24,25
 638 215 638 215 638 292 c 2,26,-1
 638 426 l 1,27,-1
 638 559 l 2,28,29
 638 562 638 562 638 570.5 c 128,-1,30
 638 579 638 579 638 582.5 c 128,-1,31
 638 586 638 586 637.5 593 c 128,-1,32
 637 600 637 600 635.5 604.5 c 128,-1,33
 634 609 634 609 631.5 614.5 c 128,-1,34
 629 620 629 620 625 625 c 0,35,36
 602 653 602 653 535 653 c 1,37,-1
 535 684 l 1,38,-1
 772 684 l 1,39,-1
 772 653 l 1,40,41
 706 653 706 653 682 626 c 0,42,43
 669 610 669 610 669 562 c 2,44,-1
 669 436 l 1,45,-1
 669 296 l 2,46,47
 669 208 669 208 666 191 c 0,48,49
 652 95 652 95 574 33 c 0,50,51
 546 10 546 10 511 -3 c 0,52,53
 467 -21 467 -21 425 -21 c 0,54,55
 369 -21 369 -21 323 -7 c 0,56,57
 216 27 216 27 164 120 c 0,58,59
 150 145 150 145 142 176 c 0,60,61
 136 199 136 199 136 269 c 2,62,-1
 136 397 l 1,63,-1
 136 575 l 1,64,-1
 136 609 l 2,65,66
 136 633 136 633 127 641 c 0,67,68
 119 649 119 649 98 651 c 0,69,70
 76 653 76 653 33 653 c 1,71,-1
 33 684 l 1,0,-1
305 653 m 1,72,-1
 225 653 l 1,73,-1
 225 362 l 1,74,-1
 225 266 l 2,75,76
 225 217 225 217 226 208 c 0,77,78
 233 117 233 117 274 72 c 0,79,80
 291 53 291 53 305 45 c 1,81,-1
 305 653 l 1,72,-1
EndSplineSet
EndChar

StartChar: V
Encoding: 86 86 25
Width: 806
GlyphClass: 2
Flags: W
LayerCount: 2
Fore
SplineSet
19 684 m 1,0,-1
 408 684 l 1,1,-1
 408 653 l 1,2,3
 369 653 369 653 350 647 c 0,4,5
 332 641 332 641 328 629 c 0,6,7
 326 622 326 622 337 594 c 0,8,9
 342 580 342 580 352.5 553 c 128,-1,10
 363 526 363 526 368 512 c 0,11,12
 382 476 382 476 410.5 402 c 128,-1,13
 439 328 439 328 453 292 c 0,14,15
 457 281 457 281 465.5 258.5 c 128,-1,16
 474 236 474 236 478 225 c 0,17,18
 489 200 489 200 491 190 c 1,19,-1
 492 190 l 2,20,21
 492 192 492 192 507 230 c 2,22,-1
 534 302 l 2,23,24
 592 452 592 452 620 527 c 0,25,26
 627 543 627 543 639 575 c 0,27,28
 647 595 647 595 647 605 c 0,29,30
 646 627 646 627 624 641 c 0,31,32
 618 645 618 645 604 649 c 0,33,34
 592 653 592 653 575 653 c 1,35,-1
 575 684 l 1,36,-1
 786 684 l 1,37,-1
 786 653 l 1,38,39
 720 653 720 653 690 612 c 0,40,41
 682 601 682 601 671 571 c 2,42,-1
 653 523 l 2,43,44
 629 462 629 462 582.5 340.5 c 128,-1,45
 536 219 536 219 513 159 c 0,46,47
 490 100 490 100 464 31 c 0,48,49
 463 29 463 29 461 23 c 128,-1,50
 459 17 459 17 458 14 c 128,-1,51
 457 11 457 11 454.5 6 c 128,-1,52
 452 1 452 1 449 -1.5 c 128,-1,53
 446 -4 446 -4 442 -6 c 128,-1,54
 438 -8 438 -8 433 -8 c 2,55,-1
 383 -8 l 2,56,57
 364 -8 364 -8 359 -5 c 0,58,59
 353 -1 353 -1 349 12 c 2,60,-1
 339 38 l 2,61,62
 324 75 324 75 296 149 c 0,63,64
 251 264 251 264 163 496 c 0,65,66
 157 512 157 512 144.5 544 c 128,-1,67
 132 576 132 576 126 592 c 0,68,69
 112 630 112 630 103 639 c 0,70,71
 94 647 94 647 72 651 c 0,72,73
 54 653 54 653 19 653 c 1,74,-1
 19 684 l 1,0,-1
431 37 m 1,75,76
 435 41 435 41 443 63 c 0,77,78
 457 101 457 101 465 120 c 0,79,80
 474 145 474 145 474 148 c 0,81,82
 474 152 474 152 469 162 c 0,83,84
 466 172 466 172 461 184 c 0,85,86
 456 197 456 197 446 223.5 c 128,-1,87
 436 250 436 250 431 263 c 0,88,89
 415 304 415 304 383.5 386.5 c 128,-1,90
 352 469 352 469 336 510 c 0,91,92
 315 564 315 564 298 610 c 0,93,94
 291 625 291 625 287 638 c 0,95,96
 287 639 287 639 285 644 c 128,-1,97
 283 649 283 649 281 651 c 0,98,99
 278 653 278 653 258 653 c 2,100,-1
 195 653 l 1,101,-1
 248 516 l 1,102,-1
 362 218 l 1,103,-1
 411 90 l 1,104,-1
 431 37 l 1,75,76
EndSplineSet
EndChar

StartChar: W
Encoding: 87 87 26
Width: 1083
GlyphClass: 2
Flags: W
LayerCount: 2
Fore
SplineSet
18 684 m 1,0,-1
 391 684 l 1,1,-1
 391 653 l 1,2,3
 354 653 354 653 336 647 c 0,4,5
 317 641 317 641 314 630 c 0,6,7
 311 623 311 623 319 596 c 0,8,9
 333 553 333 553 342 520 c 2,10,-1
 403 322 l 1,11,-1
 421 262 l 2,12,13
 431 232 431 232 432 225 c 1,14,-1
 433 225 l 1,15,16
 435 238 435 238 443 259 c 0,17,18
 446 267 446 267 451 284 c 128,-1,19
 456 301 456 301 458 309 c 0,20,21
 465 334 465 334 480.5 384.5 c 128,-1,22
 496 435 496 435 504 460 c 0,23,24
 507 468 507 468 512 485 c 128,-1,25
 517 502 517 502 519 510 c 0,26,27
 526 529 526 529 527 536 c 0,28,29
 527 540 527 540 519 565 c 2,30,-1
 504 616 l 2,31,32
 496 639 496 639 485 645 c 0,33,34
 476 650 476 650 454 652 c 0,35,36
 443 653 443 653 420 653 c 1,37,-1
 420 684 l 1,38,-1
 679 684 l 1,39,-1
 679 653 l 1,40,41
 637 653 637 653 617 647 c 0,42,43
 598 639 598 639 594 627 c 0,44,45
 593 625 593 625 596 609 c 0,46,47
 598 605 598 605 601 595 c 128,-1,48
 604 585 604 585 605 581 c 0,49,50
 610 562 610 562 622 524.5 c 128,-1,51
 634 487 634 487 639 469 c 2,52,-1
 727 181 l 2,53,54
 732 165 732 165 742 132.5 c 128,-1,55
 752 100 752 100 757 84 c 0,56,57
 759 79 759 79 761.5 69 c 128,-1,58
 764 59 764 59 766.5 51 c 128,-1,59
 769 43 769 43 772 36 c 1,60,61
 778 57 778 57 790.5 97 c 128,-1,62
 803 137 803 137 809 158 c 2,63,-1
 893 431 l 2,64,65
 899 451 899 451 910.5 489.5 c 128,-1,66
 922 528 922 528 928 547 c 0,67,68
 935 571 935 571 938 578 c 0,69,70
 943 595 943 595 942 600 c 0,71,72
 942 617 942 617 925 632 c 0,73,74
 900 653 900 653 854 653 c 1,75,-1
 854 684 l 1,76,-1
 1064 684 l 1,77,-1
 1064 653 l 1,78,79
 1022 653 1022 653 999 635 c 0,80,81
 977 618 977 618 961 569 c 0,82,83
 957 555 957 555 949 528.5 c 128,-1,84
 941 502 941 502 937 489 c 0,85,86
 920 431 920 431 884.5 315.5 c 128,-1,87
 849 200 849 200 831 142 c 0,88,89
 826 126 826 126 815.5 93 c 128,-1,90
 805 60 805 60 800 43 c 0,91,92
 799 36 799 36 792 14 c 0,93,94
 786 -1 786 -1 785 -2 c 0,95,96
 780 -8 780 -8 766 -8 c 2,97,-1
 740 -8 l 1,98,-1
 714 -8 l 2,99,100
 702 -8 702 -8 697 -5 c 0,101,102
 693 -1 693 -1 689 9 c 0,103,104
 685 25 685 25 682 33 c 0,105,106
 659 110 659 110 651 133 c 0,107,108
 644 156 644 156 630.5 201.5 c 128,-1,109
 617 247 617 247 610 270 c 0,110,111
 602 295 602 295 586.5 345.5 c 128,-1,112
 571 396 571 396 563 421 c 0,113,114
 545 483 545 483 541 493 c 1,115,116
 537 483 537 483 519 421 c 0,117,118
 482 304 482 304 472 269 c 0,119,120
 465 246 465 246 451 200.5 c 128,-1,121
 437 155 437 155 431 133 c 0,122,123
 423 110 423 110 400 33 c 0,124,125
 397 25 397 25 393 9 c 0,126,127
 389 -1 389 -1 385 -5 c 0,128,129
 380 -8 380 -8 368 -8 c 2,130,-1
 342 -8 l 1,131,-1
 316 -8 l 2,132,133
 302 -8 302 -8 297 -2 c 0,134,135
 296 -1 296 -1 290 14 c 0,136,137
 283 36 283 36 282 43 c 0,138,139
 277 60 277 60 266.5 93 c 128,-1,140
 256 126 256 126 251 142 c 0,141,142
 234 200 234 200 199 314.5 c 128,-1,143
 164 429 164 429 146 486 c 0,144,145
 128 548 128 548 112 596 c 0,146,147
 102 634 102 634 89 644 c 0,148,149
 82 649 82 649 64 651 c 0,150,151
 49 653 49 653 18 653 c 1,152,-1
 18 684 l 1,0,-1
375 36 m 1,153,-1
 403 130 l 1,154,-1
 411 156 l 1,155,-1
 415 171 l 1,156,-1
 413 184 l 1,157,-1
 406 205 l 1,158,-1
 383 279 l 1,159,-1
 306 531 l 1,160,-1
 280 617 l 1,161,-1
 273 640 l 1,162,-1
 269 651 l 1,163,-1
 261 653 l 1,164,-1
 246 653 l 1,165,-1
 185 653 l 1,166,-1
 234 494 l 1,167,-1
 336 160 l 1,168,-1
 374 36 l 1,169,-1
 375 36 l 1,153,-1
EndSplineSet
EndChar

StartChar: X
Encoding: 88 88 27
Width: 861
GlyphClass: 2
Flags: W
LayerCount: 2
Fore
SplineSet
23 684 m 1,0,-1
 436 684 l 1,1,-1
 436 653 l 1,2,3
 408 653 408 653 385 641 c 0,4,5
 371 632 371 632 371 624 c 0,6,7
 370 620 370 620 378 607 c 0,8,9
 382 602 382 602 389 591 c 128,-1,10
 396 580 396 580 400 574 c 0,11,12
 409 559 409 559 427.5 531 c 128,-1,13
 446 503 446 503 455 488 c 0,14,15
 458 482 458 482 468.5 467 c 128,-1,16
 479 452 479 452 483 444 c 1,17,18
 488 450 488 450 497 461 c 128,-1,19
 506 472 506 472 511 478 c 2,20,-1
 561 541 l 1,21,-1
 588 575 l 2,22,23
 600 589 600 589 604 598 c 0,24,25
 607 602 607 602 607 609 c 0,26,27
 609 629 609 629 591.5 641 c 128,-1,28
 574 653 574 653 553 653 c 1,29,-1
 553 684 l 1,30,-1
 793 684 l 1,31,-1
 793 653 l 1,32,33
 721 653 721 653 675 622 c 0,34,35
 655 609 655 609 622 567 c 0,36,37
 618 562 618 562 564 494 c 2,38,-1
 519 438 l 2,39,40
 517 436 517 436 513.5 431.5 c 128,-1,41
 510 427 510 427 508 424 c 0,42,43
 504 418 504 418 504 415 c 128,-1,44
 504 412 504 412 509 404 c 0,45,46
 511 400 511 400 516 393 c 128,-1,47
 521 386 521 386 523 383 c 0,48,49
 531 369 531 369 548.5 342.5 c 128,-1,50
 566 316 566 316 575 303 c 0,51,52
 653 181 653 181 693 120 c 0,53,54
 698 113 698 113 706 99.5 c 128,-1,55
 714 86 714 86 719 79 c 0,56,57
 737 51 737 51 751 42 c 0,58,59
 764 35 764 35 796 33 c 0,60,61
 810 32 810 32 837 32 c 1,62,-1
 837 1 l 1,63,-1
 424 1 l 1,64,-1
 424 32 l 1,65,66
 452 32 452 32 475 44 c 0,67,68
 489 53 489 53 489 61 c 0,69,70
 490 65 490 65 482 78 c 0,71,72
 478 84 478 84 470.5 95.5 c 128,-1,73
 463 107 463 107 459 113 c 0,74,75
 441 142 441 142 403 200 c 0,76,77
 396 210 396 210 384 230 c 0,78,79
 374 244 374 244 371 251 c 1,80,81
 358 236 358 236 344 218.5 c 128,-1,82
 330 201 330 201 313 179.5 c 128,-1,83
 296 158 296 158 287 146 c 2,84,-1
 259 111 l 2,85,86
 243 90 243 90 242 87 c 0,87,88
 239 82 239 82 239 76 c 0,89,90
 238 56 238 56 254.5 44.5 c 128,-1,91
 271 33 271 33 293 32 c 1,92,-1
 293 1 l 1,93,-1
 53 1 l 1,94,-1
 53 32 l 1,95,96
 127 32 127 32 175 66 c 0,97,98
 193 79 193 79 230 125 c 2,99,-1
 287 197 l 2,100,101
 295 207 295 207 310.5 226.5 c 128,-1,102
 326 246 326 246 334 256 c 0,103,104
 344 269 344 269 345 270 c 0,105,106
 350 278 350 278 350 279 c 0,107,108
 350 282 350 282 345 290 c 0,109,110
 338 300 338 300 331 312 c 0,111,112
 322 326 322 326 304.5 353 c 128,-1,113
 287 380 287 380 278 393 c 0,114,115
 259 422 259 422 222 480 c 128,-1,116
 185 538 185 538 166 567 c 0,117,118
 161 574 161 574 153 587.5 c 128,-1,119
 145 601 145 601 140 607 c 0,120,121
 124 634 124 634 109 643 c 0,122,123
 96 650 96 650 64 652 c 0,124,125
 50 653 50 653 23 653 c 1,126,-1
 23 684 l 1,0,-1
711 32 m 1,127,-1
 677 85 l 1,128,-1
 617 179 l 1,129,-1
 433 463 l 1,130,-1
 350 592 l 1,131,-1
 324 633 l 1,132,-1
 311 651 l 1,133,-1
 301 653 l 1,134,-1
 284 653 l 1,135,-1
 213 653 l 1,136,-1
 249 597 l 1,137,-1
 309 503 l 1,138,-1
 492 220 l 1,139,-1
 575 92 l 1,140,-1
 600 53 l 1,141,-1
 613 34 l 1,142,-1
 623 32 l 1,143,-1
 640 32 l 1,144,-1
 711 32 l 1,127,-1
EndSplineSet
EndChar

StartChar: Y
Encoding: 89 89 28
Width: 806
GlyphClass: 2
Flags: W
LayerCount: 2
Fore
SplineSet
10 684 m 1,0,-1
 407 684 l 1,1,-1
 407 653 l 1,2,3
 370 653 370 653 353 648 c 0,4,5
 335 642 335 642 333 631 c 0,6,7
 330 623 330 623 340 604 c 2,8,-1
 370 545 l 1,9,-1
 447 391 l 1,10,-1
 472 341 l 2,11,12
 482 321 482 321 486 311 c 1,13,-1
 487 311 l 1,14,15
 491 322 491 322 525 381 c 0,16,17
 562 451 562 451 599 517 c 0,18,19
 617 551 617 551 627 568 c 0,20,21
 640 590 640 590 643 601 c 0,22,23
 645 609 645 609 644 613 c 0,24,25
 643 633 643 633 624.5 643 c 128,-1,26
 606 653 606 653 583 653 c 1,27,-1
 583 684 l 1,28,-1
 795 684 l 1,29,-1
 795 653 l 1,30,31
 731 653 731 653 695 618 c 0,32,33
 682 605 682 605 663 569 c 0,34,35
 657 558 657 558 645 536.5 c 128,-1,36
 633 515 633 515 627 504 c 0,37,38
 554 370 554 370 541 346 c 0,39,40
 536 338 536 338 527 321.5 c 128,-1,41
 518 305 518 305 514 297 c 2,42,-1
 502 273 l 2,43,44
 501 270 501 270 501 254 c 2,45,-1
 501 221 l 1,46,-1
 501 93 l 2,47,48
 501 52 501 52 512 42 c 0,49,50
 520 36 520 36 542 34 c 0,51,52
 563 32 563 32 604 32 c 1,53,-1
 604 1 l 1,54,-1
 201 1 l 1,55,-1
 201 32 l 1,56,57
 242 32 242 32 263 34 c 0,58,59
 285 36 285 36 293 42 c 0,60,61
 297 46 297 46 299.5 50.5 c 128,-1,62
 302 55 302 55 303 61.5 c 128,-1,63
 304 68 304 68 304.5 72 c 128,-1,64
 305 76 305 76 304.5 83.5 c 128,-1,65
 304 91 304 91 304 94 c 2,66,-1
 304 184 l 1,67,-1
 304 230 l 2,68,69
 304 232 304 232 289 265 c 2,70,-1
 253 336 l 1,71,-1
 149 545 l 1,72,-1
 120 603 l 2,73,74
 104 633 104 633 97 639 c 0,75,76
 84 649 84 649 62 651 c 0,77,78
 45 653 45 653 10 653 c 1,79,-1
 10 684 l 1,0,-1
470 32 m 1,80,-1
 470 196 l 1,81,-1
 470 247 l 1,82,-1
 469 274 l 1,83,-1
 457 300 l 1,84,-1
 435 345 l 1,85,-1
 363 490 l 1,86,-1
 303 609 l 1,87,-1
 288 640 l 1,88,-1
 280 652 l 1,89,-1
 270 653 l 1,90,-1
 253 653 l 1,91,-1
 192 653 l 1,92,-1
 210 616 l 1,93,-1
 242 552 l 1,94,-1
 341 354 l 1,95,-1
 373 289 l 1,96,-1
 389 256 l 1,97,-1
 390 231 l 1,98,-1
 390 184 l 1,99,-1
 390 32 l 1,100,-1
 470 32 l 1,80,-1
EndSplineSet
EndChar

StartChar: Z
Encoding: 90 90 29
Width: 750
GlyphClass: 2
Flags: W
LayerCount: 2
Fore
SplineSet
80 684 m 1,0,-1
 544 684 l 1,1,-1
 655 684 l 1,2,-1
 679 684 l 2,3,4
 690 684 690 684 692 678 c 0,5,6
 693 671 693 671 694.5 668 c 128,-1,7
 696 665 696 665 692.5 658 c 128,-1,8
 689 651 689 651 687 648 c 128,-1,9
 685 645 685 645 680.5 639 c 128,-1,10
 676 633 676 633 675 631 c 0,11,12
 662 612 662 612 637 573 c 128,-1,13
 612 534 612 534 600 515 c 0,14,15
 516 389 516 389 390 193 c 2,16,-1
 327 97 l 2,17,18
 288 37 288 37 287 35 c 2,19,-1
 362 35 l 1,20,-1
 403 35 l 2,21,22
 482 35 482 35 526 45 c 0,23,24
 574 56 574 56 601 79 c 0,25,26
 622 97 622 97 635 117 c 0,27,28
 650 142 650 142 658 169 c 0,29,30
 670 209 670 209 674 268 c 1,31,-1
 699 268 l 1,32,-1
 695 208 l 1,33,-1
 686 59 l 1,34,-1
 682 1 l 1,35,-1
 210 1 l 1,36,-1
 96 1 l 1,37,-1
 70 1 l 2,38,39
 61 1 61 1 57 6 c 0,40,41
 55 10 55 10 55 18 c 128,-1,42
 55 26 55 26 72 53 c 0,43,44
 84 72 84 72 109 110.5 c 128,-1,45
 134 149 134 149 147 168 c 0,46,47
 180 218 180 218 246 319.5 c 128,-1,48
 312 421 312 421 345 472 c 2,49,-1
 420 587 l 2,50,51
 427 598 427 598 441.5 620 c 128,-1,52
 456 642 456 642 463 653 c 1,53,-1
 396 653 l 2,54,55
 292 653 292 653 248 644 c 0,56,57
 190 631 190 631 158 603 c 0,58,59
 141 588 141 588 131 572 c 0,60,61
 117 553 117 553 107 525 c 0,62,63
 96 495 96 495 94 459 c 1,64,-1
 69 459 l 1,65,-1
 72 515 l 1,66,-1
 77 629 l 1,67,-1
 80 684 l 1,0,-1
652 653 m 1,68,-1
 586 653 l 2,69,70
 564 653 564 653 561 651 c 0,71,72
 558 648 558 648 549 634 c 0,73,74
 534 613 534 613 524 596 c 0,75,76
 482 531 482 531 445 475 c 0,77,78
 400 408 400 408 251 177 c 0,79,80
 196 93 196 93 189 82 c 0,81,82
 161 40 161 40 159 35 c 1,83,-1
 225 35 l 2,84,85
 247 35 247 35 250 37 c 0,86,87
 252 38 252 38 263 55 c 0,88,89
 277 77 277 77 289 95 c 0,90,91
 315 136 315 136 369 218 c 0,92,93
 448 337 448 337 563 515 c 2,94,-1
 623 608 l 2,95,96
 650 649 650 649 652 653 c 1,68,-1
EndSplineSet
EndChar

StartChar: a
Encoding: 97 97 30
Width: 833
GlyphClass: 2
Flags: W
LayerCount: 2
Fore
SplineSet
31 32 m 1,0,1
 67 32 67 32 85 35 c 0,2,3
 106 40 106 40 117 51 c 0,4,5
 129 65 129 65 140 106 c 0,6,7
 156 156 156 156 166 194 c 0,8,9
 212 358 212 358 262 521 c 0,10,11
 269 543 269 543 281.5 587 c 128,-1,12
 294 631 294 631 300 653 c 0,13,14
 301 655 301 655 302.5 662 c 128,-1,15
 304 669 304 669 305.5 673 c 128,-1,16
 307 677 307 677 309.5 682 c 128,-1,17
 312 687 312 687 316 690 c 128,-1,18
 320 693 320 693 325 693 c 2,19,-1
 373 693 l 1,20,-1
 467 693 l 1,21,-1
 500 693 l 2,22,23
 513 693 513 693 519 688 c 0,24,25
 524 683 524 683 526 673 c 2,26,-1
 533 649 l 2,27,28
 540 626 540 626 561 552 c 0,29,30
 578 493 578 493 613 374 c 128,-1,31
 648 255 648 255 665 196 c 0,32,33
 685 130 685 130 694 97 c 0,34,35
 707 54 707 54 714 47 c 0,36,37
 725 36 725 36 747 34 c 0,38,39
 765 32 765 32 801 32 c 1,40,-1
 801 1 l 1,41,-1
 527 1 l 1,42,-1
 527 32 l 1,43,44
 569 32 569 32 589 38 c 0,45,46
 609 46 609 46 612 58 c 0,47,48
 614 63 614 63 609 81 c 0,49,50
 607 88 607 88 602.5 102.5 c 128,-1,51
 598 117 598 117 596 125 c 0,52,53
 586 162 586 162 577 190 c 0,54,55
 576 192 576 192 575.5 195.5 c 128,-1,56
 575 199 575 199 574 201 c 128,-1,57
 573 203 573 203 571.5 205.5 c 128,-1,58
 570 208 570 208 567.5 209 c 128,-1,59
 565 210 565 210 562 210 c 2,60,-1
 427 210 l 1,61,-1
 394 210 l 2,62,63
 382 210 382 210 380 208 c 0,64,65
 377 205 377 205 374 191 c 0,66,67
 372 184 372 184 368 170.5 c 128,-1,68
 364 157 364 157 362 150 c 2,69,-1
 350 109 l 2,70,71
 337 66 337 66 355 49 c 0,72,73
 359 46 359 46 369 40 c 0,74,75
 378 36 378 36 389 34 c 128,-1,76
 400 32 400 32 423 32 c 1,77,-1
 423 1 l 1,78,-1
 31 1 l 1,79,-1
 31 32 l 1,0,1
479 662 m 1,80,-1
 395 662 l 1,81,-1
 378 603 l 1,82,-1
 345 491 l 1,83,-1
 256 183 l 1,84,-1
 229 92 l 1,85,-1
 212 32 l 1,86,-1
 273 32 l 2,87,88
 292 32 292 32 295 34 c 0,89,90
 297 36 297 36 300 49 c 2,91,-1
 310 84 l 2,92,93
 316 105 316 105 328.5 147.5 c 128,-1,94
 341 190 341 190 347 211 c 0,95,96
 359 252 359 252 406.5 413 c 128,-1,97
 454 574 454 574 479 662 c 1,80,-1
476 538 m 1,98,-1
 466 509 l 1,99,-1
 449 448 l 1,100,-1
 388 241 l 1,101,-1
 562 241 l 1,102,-1
 554 269 l 1,103,-1
 538 323 l 1,104,-1
 501 453 l 1,105,-1
 476 538 l 1,98,-1
EndSplineSet
EndChar

StartChar: h
Encoding: 104 104 31
Width: 656
GlyphClass: 2
Flags: W
LayerCount: 2
Fore
SplineSet
32 695 m 1,0,-1
 222 695 l 1,1,-1
 268 695 l 2,2,3
 284 695 284 695 287 691 c 0,4,5
 291 688 291 688 291 667 c 2,6,-1
 291 604 l 1,7,-1
 291 437 l 1,8,-1
 291 385 l 2,9,10
 291 360 291 360 292 355 c 1,11,12
 297 371 297 371 314 390 c 0,13,14
 351 433 351 433 404 442 c 0,15,16
 418 444 418 444 447 442 c 0,17,18
 515 437 515 437 540 388 c 0,19,20
 557 357 557 357 557 282 c 2,21,-1
 557 130 l 1,22,-1
 557 84 l 2,23,24
 557 60 557 60 558 55 c 0,25,26
 563 38 563 38 586 34 c 0,27,28
 602 32 602 32 635 32 c 1,29,-1
 635 1 l 1,30,-1
 409 1 l 1,31,-1
 409 32 l 1,32,33
 440 32 440 32 456 34 c 128,-1,34
 472 36 472 36 480 43 c 0,35,36
 487 51 487 51 487 72 c 2,37,-1
 487 119 l 1,38,-1
 487 255 l 1,39,-1
 487 325 l 1,40,41
 482 405 482 405 439 418 c 0,42,43
 430 421 430 421 421 421 c 0,44,45
 398 421 398 421 377 412 c 0,46,47
 359 405 359 405 343 390 c 0,48,49
 301 351 301 351 293 289 c 0,50,51
 291 276 291 276 291 230 c 2,52,-1
 291 154 l 1,53,-1
 291 79 l 2,54,55
 291 53 291 53 298 44 c 0,56,57
 304 36 304 36 321 34 c 0,58,59
 337 32 337 32 369 32 c 1,60,-1
 369 1 l 1,61,-1
 32 1 l 1,62,-1
 32 32 l 1,63,64
 65 32 65 32 81 34 c 0,65,66
 101 38 101 38 107 50 c 0,67,68
 110 57 110 57 110 94 c 2,69,-1
 110 184 l 1,70,-1
 110 500 l 1,71,-1
 110 600 l 2,72,73
 110 640 110 640 106 647 c 0,74,75
 99 660 99 660 81 662 c 0,76,77
 65 664 65 664 32 664 c 1,78,-1
 32 695 l 1,0,-1
260 664 m 1,79,-1
 180 664 l 1,80,-1
 180 32 l 1,81,-1
 260 32 l 1,82,-1
 260 664 l 1,79,-1
EndSplineSet
EndChar

StartChar: k
Encoding: 107 107 32
Width: 628
GlyphClass: 2
Flags: W
LayerCount: 2
Fore
SplineSet
27 695 m 1,0,-1
 212 695 l 1,1,-1
 259 695 l 2,2,3
 275 695 275 695 279 692 c 128,-1,4
 283 689 283 689 283 660 c 2,5,-1
 283 570 l 1,6,-1
 283 203 l 1,7,8
 351 267 351 267 384 300 c 0,9,10
 422 335 422 335 428 343 c 0,11,12
 454 371 454 371 431 393 c 0,13,14
 425 397 425 397 422 398 c 0,15,16
 414 401 414 401 407 401 c 1,17,-1
 407 432 l 1,18,-1
 589 432 l 1,19,-1
 589 401 l 1,20,21
 547 401 547 401 512.5 378.5 c 128,-1,22
 478 356 478 356 438 316 c 0,23,24
 433 312 433 312 423.5 302 c 128,-1,25
 414 292 414 292 409 288 c 0,26,27
 399 278 399 278 399 276 c 128,-1,28
 399 274 399 274 410 256 c 2,29,-1
 443 205 l 2,30,31
 504 109 504 109 513 96 c 0,32,33
 540 52 540 52 560 41 c 0,34,35
 575 32 575 32 611 32 c 1,36,-1
 611 1 l 1,37,-1
 417 1 l 1,38,-1
 417 32 l 1,39,40
 424 32 424 32 436 34 c 0,41,42
 442 36 442 36 445 38 c 0,43,44
 465 51 465 51 446 84 c 0,45,46
 431 109 431 109 398.5 158.5 c 128,-1,47
 366 208 366 208 351 233 c 1,48,-1
 350 233 l 1,49,50
 340 221 340 221 306 189 c 0,51,52
 288 173 288 173 285 167 c 0,53,54
 283 163 283 163 283 155 c 2,55,-1
 283 137 l 1,56,-1
 283 72 l 2,57,58
 283 49 283 49 293 41 c 0,59,60
 299 36 299 36 315 34 c 0,61,62
 330 32 330 32 361 32 c 1,63,-1
 361 1 l 1,64,-1
 27 1 l 1,65,-1
 27 32 l 1,66,67
 60 32 60 32 76 34 c 0,68,69
 96 38 96 38 102 50 c 0,70,71
 105 57 105 57 105 94 c 2,72,-1
 105 184 l 1,73,-1
 105 500 l 1,74,-1
 105 600 l 2,75,76
 105 640 105 640 101 647 c 0,77,78
 94 660 94 660 76 662 c 0,79,80
 60 664 60 664 27 664 c 1,81,-1
 27 695 l 1,0,-1
252 664 m 1,82,-1
 172 664 l 1,83,-1
 172 32 l 1,84,-1
 252 32 l 1,85,-1
 252 664 l 1,82,-1
EndSplineSet
EndChar
